# xmcd
#
# Track frame offsets:
#	150
#	16290
#	32270
#	49985
#	78816
#	97834
#	131490
#	148799
#	168753
#	199656
#
# Disc length: 2953 seconds
#
# Revision: 1
# Processed by: cddbd v1.5.1PL0 Copyright (c) Steve Scherf et al.
# Submitted via: audiograbber 1.83.01
#
DISCID=710b870a
DTITLE=The Nortons - Frist Take
DYEAR=2002
DGENRE=Blues
TTITLE0=Voodoo on the Bayou
TTITLE1=You Gotta Do What You Gotta Do
TTITLE2=Wish You Were Mine
TTITLE3=Mr. Smooth
TTITLE4=Talk to Your Daughter
TTITLE5=Still Got the Blues
TTITLE6=Across the Line
TTITLE7=Tired of Talkin'
TTITLE8=Queen of Hearts
TTITLE9=Leave This Town
EXTD=
EXTT0=
EXTT1=
EXTT2=
EXTT3=
EXTT4=
EXTT5=
EXTT6=
EXTT7=
EXTT8=
EXTT9=
PLAYORDER=
